# xmcd
#
# Track frame offsets: 
#        150
#        15717
#        29880
#        46325
#        59170
#        76000
#        94007
#        109870
#        124195
#        141847
#        158985
#        177462
#        193390
#        206322
#        235810
#        252712
#        269450
#
# Disc length: 4032 seconds
#
# Revision: 8
# Processed by: cddbd v1.5.2PL0 Copyright (c) Steve Scherf et al.
# Submitted via: ExactAudioCopy v1.0b1
#
DISCID=000fbe11
DTITLE=Ace Of Base - Singles Of The 90s
DYEAR=1999
DGENRE=Pop
TTITLE0=C'est La Vie (Always 21)
TTITLE1=The Sign
TTITLE2=Beautìul Life
TTITLE3=Hallo Hallo
TTITLE4=Always Have, Always Will
TTITLE5=Love In December
TTITLE6=All That She Wants
TTITLE7=Living In Danger
TTITLE8=Everytime It Rains
TTITLE9=Don't Turn Around
TTITLE10=Cruel Summer
TTITLE11=Happy Nation
TTITLE12=Lucky Love
TTITLE13=Never Gonna Say I'm Sorry
TTITLE14=Life Is A Flower
TTITLE15=Wheel Of Fortune
TTITLE16=Megamix
EXTD=
EXTT0=
EXTT1=
EXTT2=
EXTT3=
EXTT4=
EXTT5=
EXTT6=
EXTT7=
EXTT8=
EXTT9=
EXTT10=
EXTT11=
EXTT12=
EXTT13=
EXTT14=
EXTT15=
EXTT16=
PLAYORDER=
